<?xml version="1.0" encoding="UTF-8" standalone="no"?>
<!-- Created with Inkscape (http://www.inkscape.org/) -->

<svg
   width="101.90106mm"
   height="104.56893mm"
   viewBox="0 0 101.90106 104.56893"
   version="1.1"
   id="svg5"
   inkscape:version="1.1.2 (0a00cf5339, 2022-02-04)"
   sodipodi:docname="soddy.svg"
   xmlns:inkscape="http://www.inkscape.org/namespaces/inkscape"
   xmlns:sodipodi="http://sodipodi.sourceforge.net/DTD/sodipodi-0.dtd"
   xmlns="http://www.w3.org/2000/svg"
   xmlns:svg="http://www.w3.org/2000/svg"
   xmlns:ns2="http://www.iki.fi/pav/software/textext/">
  <sodipodi:namedview
     id="namedview7"
     pagecolor="#ffffff"
     bordercolor="#666666"
     borderopacity="1.0"
     inkscape:pageshadow="2"
     inkscape:pageopacity="0.0"
     inkscape:pagecheckerboard="0"
     inkscape:document-units="mm"
     showgrid="false"
     inkscape:zoom="16.0099"
     inkscape:cx="188.88312"
     inkscape:cy="246.19141"
     inkscape:window-width="1848"
     inkscape:window-height="1249"
     inkscape:window-x="72"
     inkscape:window-y="0"
     inkscape:window-maximized="1"
     inkscape:current-layer="layer1"
     fit-margin-top="0"
     fit-margin-left="0"
     fit-margin-right="0"
     fit-margin-bottom="0" />
  <defs
     id="defs2" />
  <g
     inkscape:label="Capa 1"
     inkscape:groupmode="layer"
     id="layer1"
     transform="translate(-56.882651,-48.654987)">
    <circle
       style="fill:none;stroke:#000000;stroke-width:0.264583"
       id="path97"
       cx="79.457794"
       cy="107.75143"
       r="21.399147" />
    <circle
       style="fill:none;stroke:#000000;stroke-width:0.264583"
       id="path285"
       cx="128.034"
       cy="93.079849"
       r="29.185404" />
    <ellipse
       style="fill:none;stroke:#ff0000;stroke-width:0.377899"
       id="path411"
       cx="103.3606"
       cy="114.29105"
       rx="3.3022308"
       ry="3.4252837" />
    <ellipse
       style="fill:none;stroke:#ff0000;stroke-width:0.269922"
       id="path643"
       cx="107.83318"
       cy="100.93945"
       rx="50.815571"
       ry="52.149506" />
    <circle
       style="fill:none;stroke:#000000;stroke-width:0.264583"
       id="path1065"
       cx="107.34363"
       cy="135.22566"
       r="17.641682" />
    <g
       transform="matrix(0.8066244,0,0,0.85991406,71.936468,89.909285)"
       ns2:version="1.3.0"
       ns2:texconverter="pdflatex"
       ns2:pdfconverter="inkscape"
       ns2:text="$C_1$"
       ns2:preamble="/usr/share/inkscape/extensions/textext/default_packages.tex"
       ns2:scale="1.0"
       ns2:alignment="middle center"
       ns2:inkscapeversion="1.1.2"
       ns2:jacobian_sqrt="0.352778"
       id="g46">
      <defs
         id="id-c5af4457-94ef-47de-85d9-36be20758713">
        <g
           id="id-f3576c21-464e-4de2-82a4-6bfab3813cba">
          <symbol
             overflow="visible"
             id="id-ba70646a-b8f1-476c-af91-1fe2a4a3efbe">
            <path
               style="stroke:none;stroke-width:0"
               d=""
               id="id-c8fb7580-42c4-4a60-893e-976f5a424360" />
          </symbol>
          <symbol
             overflow="visible"
             id="id-41e98945-62f0-45ef-90f2-36ed4947e0f2">
            <path
               style="stroke:none;stroke-width:0"
               d="m 7.578125,-6.921875 c 0,-0.03125 -0.015625,-0.109375 -0.109375,-0.109375 -0.03125,0 -0.046875,0.015625 -0.15625,0.125 L 6.625,-6.140625 C 6.53125,-6.28125 6.078125,-7.03125 4.96875,-7.03125 2.734375,-7.03125 0.5,-4.828125 0.5,-2.515625 0.5,-0.875 1.671875,0.21875 3.203125,0.21875 c 0.859375,0 1.625,-0.390625 2.15625,-0.859375 0.921875,-0.8125 1.09375,-1.71875 1.09375,-1.75 C 6.453125,-2.5 6.34375,-2.5 6.328125,-2.5 c -0.0625,0 -0.109375,0.03125 -0.125,0.109375 -0.09375,0.28125 -0.328125,1 -1.015625,1.578125 -0.6875,0.546875 -1.3125,0.71875 -1.828125,0.71875 -0.890625,0 -1.953125,-0.515625 -1.953125,-2.0625 0,-0.578125 0.203125,-2.1875 1.203125,-3.359375 0.609375,-0.703125 1.546875,-1.203125 2.4375,-1.203125 1.015625,0 1.609375,0.765625 1.609375,1.921875 0,0.40625 -0.03125,0.40625 -0.03125,0.515625 0,0.09375 0.109375,0.09375 0.140625,0.09375 0.125,0 0.125,-0.015625 0.1875,-0.203125 z m 0,0"
               id="id-4a854940-6d79-45c4-b30a-2e4e9dd6f4f2" />
          </symbol>
          <symbol
             overflow="visible"
             id="id-6eb1bc93-6a64-429f-9dfc-5d30ce39b2ca">
            <path
               style="stroke:none;stroke-width:0"
               d=""
               id="id-76e47f46-a5c7-486d-8ad9-22670bf7dedb" />
          </symbol>
          <symbol
             overflow="visible"
             id="id-c6fe0922-a0f6-4dfa-ba4b-ddad674ee434">
            <path
               style="stroke:none;stroke-width:0"
               d="m 2.328125,-4.4375 c 0,-0.1875 0,-0.1875 -0.203125,-0.1875 -0.453125,0.4375 -1.078125,0.4375 -1.359375,0.4375 v 0.25 c 0.15625,0 0.625,0 1,-0.1875 v 3.546875 c 0,0.234375 0,0.328125 -0.6875,0.328125 H 0.8125 V 0 c 0.125,0 0.984375,-0.03125 1.234375,-0.03125 0.21875,0 1.09375,0.03125 1.25,0.03125 V -0.25 H 3.03125 c -0.703125,0 -0.703125,-0.09375 -0.703125,-0.328125 z m 0,0"
               id="id-7a0e2ac6-dca5-491d-8639-5c4126f4b8cc" />
          </symbol>
        </g>
      </defs>
      <g
         id="id-e8988f7f-e3a2-4cd6-af4c-d498d0ef1778"
         transform="translate(-149.212,-127.734)">
        <g
           style="fill:#000000;fill-opacity:1"
           id="id-4db7c4dc-4d29-4d07-8713-de8b14641ee0">
          <g
             transform="translate(148.712,134.765)"
             id="g38">
            <path
               style="stroke:none;stroke-width:0"
               d="m 7.578125,-6.921875 c 0,-0.03125 -0.015625,-0.109375 -0.109375,-0.109375 -0.03125,0 -0.046875,0.015625 -0.15625,0.125 L 6.625,-6.140625 C 6.53125,-6.28125 6.078125,-7.03125 4.96875,-7.03125 2.734375,-7.03125 0.5,-4.828125 0.5,-2.515625 0.5,-0.875 1.671875,0.21875 3.203125,0.21875 c 0.859375,0 1.625,-0.390625 2.15625,-0.859375 0.921875,-0.8125 1.09375,-1.71875 1.09375,-1.75 C 6.453125,-2.5 6.34375,-2.5 6.328125,-2.5 c -0.0625,0 -0.109375,0.03125 -0.125,0.109375 -0.09375,0.28125 -0.328125,1 -1.015625,1.578125 -0.6875,0.546875 -1.3125,0.71875 -1.828125,0.71875 -0.890625,0 -1.953125,-0.515625 -1.953125,-2.0625 0,-0.578125 0.203125,-2.1875 1.203125,-3.359375 0.609375,-0.703125 1.546875,-1.203125 2.4375,-1.203125 1.015625,0 1.609375,0.765625 1.609375,1.921875 0,0.40625 -0.03125,0.40625 -0.03125,0.515625 0,0.09375 0.109375,0.09375 0.140625,0.09375 0.125,0 0.125,-0.015625 0.1875,-0.203125 z m 0,0"
               id="id-f52dbaac-e1e8-44a9-abc3-605f893daa66" />
          </g>
        </g>
        <g
           style="fill:#000000;fill-opacity:1"
           id="id-a6034ead-0f38-4edc-8407-90a0ebadb083">
          <g
             transform="translate(155.833,136.259)"
             id="g42">
            <path
               style="stroke:none;stroke-width:0"
               d="m 2.328125,-4.4375 c 0,-0.1875 0,-0.1875 -0.203125,-0.1875 -0.453125,0.4375 -1.078125,0.4375 -1.359375,0.4375 v 0.25 c 0.15625,0 0.625,0 1,-0.1875 v 3.546875 c 0,0.234375 0,0.328125 -0.6875,0.328125 H 0.8125 V 0 c 0.125,0 0.984375,-0.03125 1.234375,-0.03125 0.21875,0 1.09375,0.03125 1.25,0.03125 V -0.25 H 3.03125 c -0.703125,0 -0.703125,-0.09375 -0.703125,-0.328125 z m 0,0"
               id="id-e7a4ea8c-fe96-437d-8a67-2d6db383f905" />
          </g>
        </g>
      </g>
    </g>
    <g
       transform="matrix(0.78921732,0,0,0.78921732,117.5346,69.682878)"
       ns2:version="1.3.0"
       ns2:texconverter="pdflatex"
       ns2:pdfconverter="inkscape"
       ns2:text="$C_2$"
       ns2:preamble="/usr/share/inkscape/extensions/textext/default_packages.tex"
       ns2:scale="1.0"
       ns2:alignment="middle center"
       ns2:inkscapeversion="1.1.2"
       ns2:jacobian_sqrt="0.352778"
       id="g157">
      <defs
         id="id-b899210e-5f72-4ad9-a581-3be04d180cc5">
        <g
           id="id-7fbf6283-6c1b-4df0-bf16-e50f00325ae1">
          <symbol
             overflow="visible"
             id="id-560676ad-1868-48c2-a5d1-90b37e08010a">
            <path
               style="stroke:none;stroke-width:0"
               d=""
               id="id-f7a1fab2-9233-44fb-97da-3ecbc73df54f" />
          </symbol>
          <symbol
             overflow="visible"
             id="id-ba3667b4-8bbe-4474-9e25-7df80cbe8ed7">
            <path
               style="stroke:none;stroke-width:0"
               d="m 7.578125,-6.921875 c 0,-0.03125 -0.015625,-0.109375 -0.109375,-0.109375 -0.03125,0 -0.046875,0.015625 -0.15625,0.125 L 6.625,-6.140625 C 6.53125,-6.28125 6.078125,-7.03125 4.96875,-7.03125 2.734375,-7.03125 0.5,-4.828125 0.5,-2.515625 0.5,-0.875 1.671875,0.21875 3.203125,0.21875 c 0.859375,0 1.625,-0.390625 2.15625,-0.859375 0.921875,-0.8125 1.09375,-1.71875 1.09375,-1.75 C 6.453125,-2.5 6.34375,-2.5 6.328125,-2.5 c -0.0625,0 -0.109375,0.03125 -0.125,0.109375 -0.09375,0.28125 -0.328125,1 -1.015625,1.578125 -0.6875,0.546875 -1.3125,0.71875 -1.828125,0.71875 -0.890625,0 -1.953125,-0.515625 -1.953125,-2.0625 0,-0.578125 0.203125,-2.1875 1.203125,-3.359375 0.609375,-0.703125 1.546875,-1.203125 2.4375,-1.203125 1.015625,0 1.609375,0.765625 1.609375,1.921875 0,0.40625 -0.03125,0.40625 -0.03125,0.515625 0,0.09375 0.109375,0.09375 0.140625,0.09375 0.125,0 0.125,-0.015625 0.1875,-0.203125 z m 0,0"
               id="id-228b4412-46da-4496-ab8b-e0b9ab88e2f4" />
          </symbol>
          <symbol
             overflow="visible"
             id="id-36bf6e0e-fe89-4d00-9c95-ce6caefd0b06">
            <path
               style="stroke:none;stroke-width:0"
               d=""
               id="id-0283815e-8e94-4d62-8124-c8163ee4233b" />
          </symbol>
          <symbol
             overflow="visible"
             id="id-a3040cc3-7dbc-4298-b2e4-7fbeefe50620">
            <path
               style="stroke:none;stroke-width:0"
               d="M 3.515625,-1.265625 H 3.28125 c -0.015625,0.15625 -0.09375,0.5625 -0.1875,0.625 C 3.046875,-0.59375 2.515625,-0.59375 2.40625,-0.59375 H 1.125 c 0.734375,-0.640625 0.984375,-0.84375 1.390625,-1.171875 0.515625,-0.40625 1,-0.84375 1,-1.5 0,-0.84375 -0.734375,-1.359375 -1.625,-1.359375 -0.859375,0 -1.453125,0.609375 -1.453125,1.25 0,0.34375 0.296875,0.390625 0.375,0.390625 0.15625,0 0.359375,-0.125 0.359375,-0.375 0,-0.125 -0.046875,-0.375 -0.40625,-0.375 C 0.984375,-4.21875 1.453125,-4.375 1.78125,-4.375 c 0.703125,0 1.0625,0.546875 1.0625,1.109375 0,0.609375 -0.4375,1.078125 -0.65625,1.328125 L 0.515625,-0.265625 C 0.4375,-0.203125 0.4375,-0.1875 0.4375,0 h 2.875 z m 0,0"
               id="id-de7b78e9-695d-4e0d-9729-66d648edf252" />
          </symbol>
        </g>
      </defs>
      <g
         id="id-7db4e514-da54-45a9-9ce0-141d01096fd7"
         transform="translate(-149.212,-127.734)">
        <g
           style="fill:#000000;fill-opacity:1"
           id="id-085d01f2-144e-4283-a4cf-b3acb1ae561d">
          <g
             transform="translate(148.712,134.765)"
             id="g149">
            <path
               style="stroke:none;stroke-width:0"
               d="m 7.578125,-6.921875 c 0,-0.03125 -0.015625,-0.109375 -0.109375,-0.109375 -0.03125,0 -0.046875,0.015625 -0.15625,0.125 L 6.625,-6.140625 C 6.53125,-6.28125 6.078125,-7.03125 4.96875,-7.03125 2.734375,-7.03125 0.5,-4.828125 0.5,-2.515625 0.5,-0.875 1.671875,0.21875 3.203125,0.21875 c 0.859375,0 1.625,-0.390625 2.15625,-0.859375 0.921875,-0.8125 1.09375,-1.71875 1.09375,-1.75 C 6.453125,-2.5 6.34375,-2.5 6.328125,-2.5 c -0.0625,0 -0.109375,0.03125 -0.125,0.109375 -0.09375,0.28125 -0.328125,1 -1.015625,1.578125 -0.6875,0.546875 -1.3125,0.71875 -1.828125,0.71875 -0.890625,0 -1.953125,-0.515625 -1.953125,-2.0625 0,-0.578125 0.203125,-2.1875 1.203125,-3.359375 0.609375,-0.703125 1.546875,-1.203125 2.4375,-1.203125 1.015625,0 1.609375,0.765625 1.609375,1.921875 0,0.40625 -0.03125,0.40625 -0.03125,0.515625 0,0.09375 0.109375,0.09375 0.140625,0.09375 0.125,0 0.125,-0.015625 0.1875,-0.203125 z m 0,0"
               id="id-ba218ee0-925a-46d4-bbfd-26c186ef2947" />
          </g>
        </g>
        <g
           style="fill:#000000;fill-opacity:1"
           id="id-d8559ec1-cda4-4e5f-85a5-f3cf4cc2c4e8">
          <g
             transform="translate(155.833,136.259)"
             id="g153">
            <path
               style="stroke:none;stroke-width:0"
               d="M 3.515625,-1.265625 H 3.28125 c -0.015625,0.15625 -0.09375,0.5625 -0.1875,0.625 C 3.046875,-0.59375 2.515625,-0.59375 2.40625,-0.59375 H 1.125 c 0.734375,-0.640625 0.984375,-0.84375 1.390625,-1.171875 0.515625,-0.40625 1,-0.84375 1,-1.5 0,-0.84375 -0.734375,-1.359375 -1.625,-1.359375 -0.859375,0 -1.453125,0.609375 -1.453125,1.25 0,0.34375 0.296875,0.390625 0.375,0.390625 0.15625,0 0.359375,-0.125 0.359375,-0.375 0,-0.125 -0.046875,-0.375 -0.40625,-0.375 C 0.984375,-4.21875 1.453125,-4.375 1.78125,-4.375 c 0.703125,0 1.0625,0.546875 1.0625,1.109375 0,0.609375 -0.4375,1.078125 -0.65625,1.328125 L 0.515625,-0.265625 C 0.4375,-0.203125 0.4375,-0.1875 0.4375,0 h 2.875 z m 0,0"
               id="id-38f265f7-bf32-4a75-aa83-9203425f80e6" />
          </g>
        </g>
      </g>
    </g>
    <g
       transform="matrix(0.78438101,0,0,0.78438101,112.72061,138.69384)"
       ns2:version="1.3.0"
       ns2:texconverter="pdflatex"
       ns2:pdfconverter="inkscape"
       ns2:text="$C_3$"
       ns2:preamble="/usr/share/inkscape/extensions/textext/default_packages.tex"
       ns2:scale="1.0"
       ns2:alignment="middle center"
       ns2:inkscapeversion="1.1.2"
       ns2:jacobian_sqrt="0.352778"
       id="g304">
      <defs
         id="id-1a70b057-124b-493e-a56f-c09524401da6">
        <g
           id="id-7a423edf-93ac-46d5-8efd-311b8ef995bc">
          <symbol
             overflow="visible"
             id="id-1ad5f8d5-6291-40d1-945e-ff544773c4db">
            <path
               style="stroke:none;stroke-width:0"
               d=""
               id="id-a9a35174-5323-4065-9c07-043e31f25443" />
          </symbol>
          <symbol
             overflow="visible"
             id="id-822e2917-a2c4-4940-99fe-a0b9c7641492">
            <path
               style="stroke:none;stroke-width:0"
               d="m 7.578125,-6.921875 c 0,-0.03125 -0.015625,-0.109375 -0.109375,-0.109375 -0.03125,0 -0.046875,0.015625 -0.15625,0.125 L 6.625,-6.140625 C 6.53125,-6.28125 6.078125,-7.03125 4.96875,-7.03125 2.734375,-7.03125 0.5,-4.828125 0.5,-2.515625 0.5,-0.875 1.671875,0.21875 3.203125,0.21875 c 0.859375,0 1.625,-0.390625 2.15625,-0.859375 0.921875,-0.8125 1.09375,-1.71875 1.09375,-1.75 C 6.453125,-2.5 6.34375,-2.5 6.328125,-2.5 c -0.0625,0 -0.109375,0.03125 -0.125,0.109375 -0.09375,0.28125 -0.328125,1 -1.015625,1.578125 -0.6875,0.546875 -1.3125,0.71875 -1.828125,0.71875 -0.890625,0 -1.953125,-0.515625 -1.953125,-2.0625 0,-0.578125 0.203125,-2.1875 1.203125,-3.359375 0.609375,-0.703125 1.546875,-1.203125 2.4375,-1.203125 1.015625,0 1.609375,0.765625 1.609375,1.921875 0,0.40625 -0.03125,0.40625 -0.03125,0.515625 0,0.09375 0.109375,0.09375 0.140625,0.09375 0.125,0 0.125,-0.015625 0.1875,-0.203125 z m 0,0"
               id="id-76cb812b-1312-4d75-9e7d-d55e4c271586" />
          </symbol>
          <symbol
             overflow="visible"
             id="id-807a3bb7-40f3-46f4-9c68-052cddc32696">
            <path
               style="stroke:none;stroke-width:0"
               d=""
               id="id-8fb62405-c508-4737-aa76-061610732cef" />
          </symbol>
          <symbol
             overflow="visible"
             id="id-20c82007-488e-49b1-81e8-c0506b566e0b">
            <path
               style="stroke:none;stroke-width:0"
               d="m 1.90625,-2.328125 c 0.546875,0 0.9375,0.375 0.9375,1.125 0,0.859375 -0.515625,1.125 -0.90625,1.125 -0.28125,0 -0.90625,-0.078125 -1.1875,-0.5 0.328125,0 0.40625,-0.234375 0.40625,-0.390625 0,-0.21875 -0.171875,-0.375 -0.390625,-0.375 -0.1875,0 -0.390625,0.125 -0.390625,0.40625 0,0.65625 0.71875,1.078125 1.5625,1.078125 0.96875,0 1.640625,-0.65625 1.640625,-1.34375 0,-0.546875 -0.4375,-1.09375 -1.203125,-1.25 0.71875,-0.265625 0.984375,-0.78125 0.984375,-1.21875 0,-0.546875 -0.625,-0.953125 -1.40625,-0.953125 -0.765625,0 -1.359375,0.375 -1.359375,0.9375 0,0.234375 0.15625,0.359375 0.359375,0.359375 0.21875,0 0.359375,-0.15625 0.359375,-0.34375 0,-0.203125 -0.140625,-0.359375 -0.359375,-0.375 0.25,-0.296875 0.71875,-0.375 0.984375,-0.375 0.3125,0 0.75,0.15625 0.75,0.75 0,0.296875 -0.09375,0.625 -0.28125,0.828125 -0.21875,0.265625 -0.421875,0.28125 -0.765625,0.3125 -0.171875,0.015625 -0.1875,0.015625 -0.21875,0.015625 -0.015625,0 -0.078125,0.015625 -0.078125,0.09375 0,0.09375 0.0625,0.09375 0.1875,0.09375 z m 0,0"
               id="id-f8b437a6-e847-475a-a913-58a7e2b54cbc" />
          </symbol>
        </g>
      </defs>
      <g
         id="id-698a3318-8c3e-435d-aac9-153694b1d875"
         transform="translate(-149.212,-127.734)">
        <g
           style="fill:#000000;fill-opacity:1"
           id="id-bdeb224b-90c2-4d00-a2fa-39d8067dd442">
          <g
             transform="translate(148.712,134.765)"
             id="g296">
            <path
               style="stroke:none;stroke-width:0"
               d="m 7.578125,-6.921875 c 0,-0.03125 -0.015625,-0.109375 -0.109375,-0.109375 -0.03125,0 -0.046875,0.015625 -0.15625,0.125 L 6.625,-6.140625 C 6.53125,-6.28125 6.078125,-7.03125 4.96875,-7.03125 2.734375,-7.03125 0.5,-4.828125 0.5,-2.515625 0.5,-0.875 1.671875,0.21875 3.203125,0.21875 c 0.859375,0 1.625,-0.390625 2.15625,-0.859375 0.921875,-0.8125 1.09375,-1.71875 1.09375,-1.75 C 6.453125,-2.5 6.34375,-2.5 6.328125,-2.5 c -0.0625,0 -0.109375,0.03125 -0.125,0.109375 -0.09375,0.28125 -0.328125,1 -1.015625,1.578125 -0.6875,0.546875 -1.3125,0.71875 -1.828125,0.71875 -0.890625,0 -1.953125,-0.515625 -1.953125,-2.0625 0,-0.578125 0.203125,-2.1875 1.203125,-3.359375 0.609375,-0.703125 1.546875,-1.203125 2.4375,-1.203125 1.015625,0 1.609375,0.765625 1.609375,1.921875 0,0.40625 -0.03125,0.40625 -0.03125,0.515625 0,0.09375 0.109375,0.09375 0.140625,0.09375 0.125,0 0.125,-0.015625 0.1875,-0.203125 z m 0,0"
               id="id-7a57ca65-ace7-4850-a389-d3acbfab36a2" />
          </g>
        </g>
        <g
           style="fill:#000000;fill-opacity:1"
           id="id-ddbb1b8a-272f-4893-89c4-1d93eb9d5380">
          <g
             transform="translate(155.833,136.259)"
             id="g300">
            <path
               style="stroke:none;stroke-width:0"
               d="m 1.90625,-2.328125 c 0.546875,0 0.9375,0.375 0.9375,1.125 0,0.859375 -0.515625,1.125 -0.90625,1.125 -0.28125,0 -0.90625,-0.078125 -1.1875,-0.5 0.328125,0 0.40625,-0.234375 0.40625,-0.390625 0,-0.21875 -0.171875,-0.375 -0.390625,-0.375 -0.1875,0 -0.390625,0.125 -0.390625,0.40625 0,0.65625 0.71875,1.078125 1.5625,1.078125 0.96875,0 1.640625,-0.65625 1.640625,-1.34375 0,-0.546875 -0.4375,-1.09375 -1.203125,-1.25 0.71875,-0.265625 0.984375,-0.78125 0.984375,-1.21875 0,-0.546875 -0.625,-0.953125 -1.40625,-0.953125 -0.765625,0 -1.359375,0.375 -1.359375,0.9375 0,0.234375 0.15625,0.359375 0.359375,0.359375 0.21875,0 0.359375,-0.15625 0.359375,-0.34375 0,-0.203125 -0.140625,-0.359375 -0.359375,-0.375 0.25,-0.296875 0.71875,-0.375 0.984375,-0.375 0.3125,0 0.75,0.15625 0.75,0.75 0,0.296875 -0.09375,0.625 -0.28125,0.828125 -0.21875,0.265625 -0.421875,0.28125 -0.765625,0.3125 -0.171875,0.015625 -0.1875,0.015625 -0.21875,0.015625 -0.015625,0 -0.078125,0.015625 -0.078125,0.09375 0,0.09375 0.0625,0.09375 0.1875,0.09375 z m 0,0"
               id="id-f9c7f7e9-04d6-4f9f-897e-597524cc017d" />
          </g>
        </g>
      </g>
    </g>
    <g
       transform="matrix(0.352778,0,0,0.352778,101.81816,112.36253)"
       ns2:version="1.3.0"
       ns2:texconverter="pdflatex"
       ns2:pdfconverter="inkscape"
       ns2:text="$C_4$"
       ns2:preamble="/usr/share/inkscape/extensions/textext/default_packages.tex"
       ns2:scale="1.0"
       ns2:alignment="middle center"
       ns2:inkscapeversion="1.1.2"
       ns2:jacobian_sqrt="0.352778"
       id="g271"
       style="fill:#ff0000">
      <defs
         id="id-e0358eae-93c9-4ba2-9f6c-b540eac90350">
        <g
           id="id-a6758673-19d4-4c73-a0e7-a7ce90221a68">
          <symbol
             overflow="visible"
             id="id-7c3612ec-9056-4d6e-9945-eae69f680516">
            <path
               style="stroke:none;stroke-width:0"
               d=""
               id="id-a752b31d-3ad4-4773-8985-25f72cc7552f" />
          </symbol>
          <symbol
             overflow="visible"
             id="id-56384f94-f246-4703-ba0a-c487b4546a33">
            <path
               style="stroke:none;stroke-width:0"
               d="m 7.578125,-6.921875 c 0,-0.03125 -0.015625,-0.109375 -0.109375,-0.109375 -0.03125,0 -0.046875,0.015625 -0.15625,0.125 L 6.625,-6.140625 C 6.53125,-6.28125 6.078125,-7.03125 4.96875,-7.03125 2.734375,-7.03125 0.5,-4.828125 0.5,-2.515625 0.5,-0.875 1.671875,0.21875 3.203125,0.21875 c 0.859375,0 1.625,-0.390625 2.15625,-0.859375 0.921875,-0.8125 1.09375,-1.71875 1.09375,-1.75 C 6.453125,-2.5 6.34375,-2.5 6.328125,-2.5 c -0.0625,0 -0.109375,0.03125 -0.125,0.109375 -0.09375,0.28125 -0.328125,1 -1.015625,1.578125 -0.6875,0.546875 -1.3125,0.71875 -1.828125,0.71875 -0.890625,0 -1.953125,-0.515625 -1.953125,-2.0625 0,-0.578125 0.203125,-2.1875 1.203125,-3.359375 0.609375,-0.703125 1.546875,-1.203125 2.4375,-1.203125 1.015625,0 1.609375,0.765625 1.609375,1.921875 0,0.40625 -0.03125,0.40625 -0.03125,0.515625 0,0.09375 0.109375,0.09375 0.140625,0.09375 0.125,0 0.125,-0.015625 0.1875,-0.203125 z m 0,0"
               id="id-6c183fa9-a6e6-4e31-8657-9e275267f211" />
          </symbol>
          <symbol
             overflow="visible"
             id="id-f02485ec-9484-44ad-967d-e4cc63e00be1">
            <path
               style="stroke:none;stroke-width:0"
               d=""
               id="id-f39d2eed-5c3b-4588-819b-a360744dc1f1" />
          </symbol>
          <symbol
             overflow="visible"
             id="id-181767c7-faed-4f14-b1d9-ba95cc668e92">
            <path
               style="stroke:none;stroke-width:0"
               d="m 3.6875,-1.140625 v -0.25 H 2.90625 V -4.5 c 0,-0.140625 0,-0.203125 -0.140625,-0.203125 -0.09375,0 -0.125,0 -0.1875,0.109375 l -2.3125,3.203125 v 0.25 h 2.0625 v 0.5625 c 0,0.25 0,0.328125 -0.578125,0.328125 H 1.5625 V 0 C 1.921875,-0.015625 2.359375,-0.03125 2.609375,-0.03125 2.875,-0.03125 3.3125,-0.015625 3.671875,0 v -0.25 h -0.1875 C 2.90625,-0.25 2.90625,-0.328125 2.90625,-0.578125 v -0.5625 z M 2.375,-3.9375 v 2.546875 H 0.53125 Z m 0,0"
               id="id-40e9c787-8909-4610-8f09-cd82f8778ff1" />
          </symbol>
        </g>
      </defs>
      <g
         id="id-b2d106c3-5a79-4695-9bcd-a0c59c22b3d2"
         transform="translate(-149.212,-127.734)"
         style="fill:#ff0000">
        <g
           style="fill:#ff0000;fill-opacity:1"
           id="id-92cc87ea-d121-4cee-92ea-8bc8be86d821">
          <g
             transform="translate(148.712,134.765)"
             id="g263"
             style="fill:#ff0000">
            <path
               style="stroke:none;stroke-width:0;fill:#ff0000"
               d="m 7.578125,-6.921875 c 0,-0.03125 -0.015625,-0.109375 -0.109375,-0.109375 -0.03125,0 -0.046875,0.015625 -0.15625,0.125 L 6.625,-6.140625 C 6.53125,-6.28125 6.078125,-7.03125 4.96875,-7.03125 2.734375,-7.03125 0.5,-4.828125 0.5,-2.515625 0.5,-0.875 1.671875,0.21875 3.203125,0.21875 c 0.859375,0 1.625,-0.390625 2.15625,-0.859375 0.921875,-0.8125 1.09375,-1.71875 1.09375,-1.75 C 6.453125,-2.5 6.34375,-2.5 6.328125,-2.5 c -0.0625,0 -0.109375,0.03125 -0.125,0.109375 -0.09375,0.28125 -0.328125,1 -1.015625,1.578125 -0.6875,0.546875 -1.3125,0.71875 -1.828125,0.71875 -0.890625,0 -1.953125,-0.515625 -1.953125,-2.0625 0,-0.578125 0.203125,-2.1875 1.203125,-3.359375 0.609375,-0.703125 1.546875,-1.203125 2.4375,-1.203125 1.015625,0 1.609375,0.765625 1.609375,1.921875 0,0.40625 -0.03125,0.40625 -0.03125,0.515625 0,0.09375 0.109375,0.09375 0.140625,0.09375 0.125,0 0.125,-0.015625 0.1875,-0.203125 z m 0,0"
               id="id-52a2b659-a7c7-4aee-a6b0-a22d716e5442" />
          </g>
        </g>
        <g
           style="fill:#ff0000;fill-opacity:1"
           id="id-9c021aa3-679d-443a-8490-753accb130b3">
          <g
             transform="translate(155.833,136.259)"
             id="g267"
             style="fill:#ff0000">
            <path
               style="stroke:none;stroke-width:0;fill:#ff0000"
               d="m 3.6875,-1.140625 v -0.25 H 2.90625 V -4.5 c 0,-0.140625 0,-0.203125 -0.140625,-0.203125 -0.09375,0 -0.125,0 -0.1875,0.109375 l -2.3125,3.203125 v 0.25 h 2.0625 v 0.5625 c 0,0.25 0,0.328125 -0.578125,0.328125 H 1.5625 V 0 C 1.921875,-0.015625 2.359375,-0.03125 2.609375,-0.03125 2.875,-0.03125 3.3125,-0.015625 3.671875,0 v -0.25 h -0.1875 C 2.90625,-0.25 2.90625,-0.328125 2.90625,-0.578125 v -0.5625 z M 2.375,-3.9375 v 2.546875 H 0.53125 Z m 0,0"
               id="id-a2d46a51-a00a-4b00-98bb-1c48896bb6e5" />
          </g>
        </g>
      </g>
    </g>
  </g>
</svg>
